<svg xmlns="http://www.w3.org/2000/svg" width="32" height="32" viewBox="0 0 32 32"><g transform="translate(0.054)"><rect width="32" height="32" transform="translate(-0.054)" fill="none"/><path d="M1416.7,51.332V48.377a6.872,6.872,0,0,0-.541-2.683,7.018,7.018,0,0,0-3.786-3.793,7,7,0,0,0-7.647,1.52,6.966,6.966,0,0,0-1.517,2.273,6.872,6.872,0,0,0-.541,2.683v7.011a1.007,1.007,0,0,0,2.013,0V53.335h8.007v-2h-8.007V48.377a5,5,0,1,1,10.005,0v6.962a1.007,1.007,0,0,0,2.013,0v-2h5V71.363h-24.038V53.335h3v-2h-5V71.453a1.905,1.905,0,0,0,1.908,1.914H1421.8a1.905,1.905,0,0,0,1.908-1.914V51.332Z" transform="translate(-1393.244 -41.367)"/></g></svg>