<svg xmlns="http://www.w3.org/2000/svg" width="32.267" height="32" viewBox="0 0 32.267 32"><rect width="32" height="32" fill="none"/><path d="M2.286,40.357c0-5.018,3.393-6.071,6.25-6.071,2.661,0,5.661,2.875,6.589,3.982a1.18,1.18,0,0,0,1.75,0c.929-1.107,3.929-3.982,6.589-3.982,2.857,0,6.25,1.054,6.25,6.071,0,3.268-3.3,6.3-3.339,6.339L16,56.7,5.643,46.714C5.589,46.661,2.286,43.625,2.286,40.357ZM0,40.357c0,4.286,3.929,7.875,4.089,8.036L15.214,59.107a1.121,1.121,0,0,0,1.571,0l11.143-10.75c.143-.125,4.071-3.714,4.071-8C32,35.125,28.8,32,23.464,32c-3.125,0-6.054,2.464-7.464,3.857C14.589,34.464,11.661,32,8.536,32,3.2,32,0,35.125,0,40.357Z" transform="translate(0.267 -29.715)"/></svg>