<svg xmlns="http://www.w3.org/2000/svg" width="32" height="32" viewBox="0 0 32 32"><g transform="translate(7745 -8534)"><rect width="32" height="32" transform="translate(-7745 8534)" fill="none"/><path d="M16,59.429a1.108,1.108,0,0,0,.786-.321l11.143-10.75c.143-.125,4.071-3.714,4.071-8C32,35.125,28.8,32,23.464,32c-3.125,0-6.054,2.464-7.464,3.857C14.589,34.464,11.661,32,8.536,32,3.2,32,0,35.125,0,40.357c0,4.286,3.929,7.875,4.089,8.036L15.214,59.107A1.108,1.108,0,0,0,16,59.429Z" transform="translate(-7745 8504)"/></g></svg>