<svg xmlns="http://www.w3.org/2000/svg" width="32.174" height="32" viewBox="0 0 32.174 32"><g transform="translate(0.174)"><rect width="32" height="32" transform="translate(-0.174)" fill="none"/><path d="M9.411,1.1c1.7-.087,2.24-.1,6.589-.1s4.887.015,6.589.1a11.719,11.719,0,0,1,3.9.742,7.733,7.733,0,0,1,2.822,1.847,7.733,7.733,0,0,1,1.847,2.822A11.7,11.7,0,0,1,31.9,10.4c.087,1.716.1,2.255.1,6.6s-.015,4.887-.1,6.589a11.7,11.7,0,0,1-.742,3.884,8.222,8.222,0,0,1-4.669,4.684A11.7,11.7,0,0,1,22.6,32.9c-1.716.087-2.255.1-6.6.1s-4.887-.015-6.589-.1a11.623,11.623,0,0,1-3.884-.742,7.668,7.668,0,0,1-2.836-1.847A7.733,7.733,0,0,1,.844,27.487,11.7,11.7,0,0,1,.1,23.6C.015,21.887,0,21.349,0,17s.015-4.887.1-6.589a11.719,11.719,0,0,1,.742-3.9A7.733,7.733,0,0,1,2.691,3.691,7.733,7.733,0,0,1,5.513,1.844,11.7,11.7,0,0,1,9.4,1.1Zm13.047,2.88c-1.687-.087-2.182-.1-6.458-.1s-4.785.015-6.473.1A9.025,9.025,0,0,0,6.56,4.52,4.858,4.858,0,0,0,4.727,5.727,4.858,4.858,0,0,0,3.52,7.56a9.025,9.025,0,0,0-.538,2.967c-.087,1.687-.1,2.2-.1,6.473s.015,4.771.1,6.458A9.049,9.049,0,0,0,3.52,26.44a4.858,4.858,0,0,0,1.207,1.833A4.858,4.858,0,0,0,6.56,29.48a8.647,8.647,0,0,0,2.967.538c1.687.087,2.2.1,6.473.1s4.771-.015,6.458-.1a8.672,8.672,0,0,0,2.982-.538,5.445,5.445,0,0,0,3.04-3.04,8.672,8.672,0,0,0,.538-2.982c.087-1.687.1-2.182.1-6.458s-.015-4.785-.1-6.473A8.647,8.647,0,0,0,28.48,7.56a4.858,4.858,0,0,0-1.207-1.833A4.858,4.858,0,0,0,25.44,4.52a9.049,9.049,0,0,0-2.982-.538M13.964,21.931a5.348,5.348,0,0,0,3.593.189,5.423,5.423,0,0,0,2.895-2.153,5.361,5.361,0,0,0,.873-3.491,5.288,5.288,0,0,0-3.52-4.495,5.366,5.366,0,0,0-4.553.436,5.374,5.374,0,0,0-2.531,3.8,5.313,5.313,0,0,0,.175,2.342,5.493,5.493,0,0,0,1.149,2.022,5.127,5.127,0,0,0,1.92,1.353M10.182,11.182a8.271,8.271,0,0,1,2.676-1.775,8.2,8.2,0,0,1,6.284,0,8.085,8.085,0,0,1,4.451,4.451,8.2,8.2,0,0,1,0,6.284,8.22,8.22,0,1,1-13.411-8.96M26.051,10a1.79,1.79,0,0,0,.436-.64,1.919,1.919,0,0,0,.175-.756,2,2,0,0,0-.145-.756,2.327,2.327,0,0,0-.422-.64,1.748,1.748,0,0,0-.655-.422,1.894,1.894,0,0,0-.756-.145,1.961,1.961,0,0,0-.756.16,1.91,1.91,0,0,0-.625.451,1.914,1.914,0,0,0,.044,2.705,1.847,1.847,0,0,0,1.338.567A1.922,1.922,0,0,0,26.051,10" transform="translate(0 -1)" fill-rule="evenodd"/></g></svg>