<svg xmlns="http://www.w3.org/2000/svg" width="32.229" height="32" viewBox="0 0 32.229 32"><rect width="32" height="32" transform="translate(0.229)" fill="none"/><path d="M24.85,31.727V17.841c-2.281-5.487-7.686,1.984-7.686,1.984v11.9H10.012V9.905h7.152v4.173c.872-1.164,3.516-4.173,7.686-4.173a6.284,6.284,0,0,1,1.282.13c.1.014.193.032.291.055.079.023.152.048.227.071A7.089,7.089,0,0,1,32,17V31.727ZM.025,31.709V9.894H7.186V31.709ZM0,3.467A3.485,3.485,0,0,1,3.5,0a3.485,3.485,0,0,1,3.5,3.467A3.485,3.485,0,0,1,3.5,6.933,3.485,3.485,0,0,1,0,3.467Z" transform="translate(0 0)"/></svg>