<svg xmlns="http://www.w3.org/2000/svg" width="32.229" height="32" viewBox="0 0 32.229 32"><rect width="32" height="32" transform="translate(0.229)" fill="none"/><path d="M17.832,23.055H9.88q-2.983,0-5.965,0a3.917,3.917,0,0,1-2.572-.9,3.876,3.876,0,0,1-1.3-2.383,4.368,4.368,0,0,1-.04-.7V17.1C0,12.771,0,8.3.006,3.9A6.608,6.608,0,0,1,.1,2.971c.021-.143.042-.292.06-.445l.091-.786.659.439,1.5,1L5.736,5.4l8.53,5.687a3.092,3.092,0,0,0,1.733.59,3.1,3.1,0,0,0,1.733-.589Q22.069,8.2,26.4,5.3l4.167-2.779.277-.183.224-.147.629-.416.118.745c.019.122.043.243.066.361a4.291,4.291,0,0,1,.1.811c.01,4.981.017,10.316,0,15.584a3.779,3.779,0,0,1-3.84,3.772c-1.251,0-2.6.005-4.251.005Zm-3-13.009L2.176,1.6l-.243-.165L1.217.95,1.863.56A3.827,3.827,0,0,1,3.9,0H19.235q4.413,0,8.826,0a3.856,3.856,0,0,1,2.074.548l.639.382-.608.429-.113.08c-.081.058-.151.107-.226.157L17.163,10.042A2.125,2.125,0,0,1,16,10.5,2.106,2.106,0,0,1,14.836,10.046Z" transform="translate(0 4)"/></svg>