<svg xmlns="http://www.w3.org/2000/svg" xmlns:xlink="http://www.w3.org/1999/xlink" width="32" height="32" viewBox="0 0 32 32"><defs><clipPath id="a"><rect width="32" height="22.864"/></clipPath></defs><g transform="translate(7331 -8533)"><rect width="32" height="32" transform="translate(-7331 8533)" fill="none"/><g transform="translate(-7331 8538)"><g transform="translate(0 0)" clip-path="url(#a)"><path d="M.159,3.517,1.7,4.546,13.935,12.7a3.428,3.428,0,0,0,4.129,0q6.621-4.41,13.24-8.827c.147-.1.295-.194.515-.34a7.863,7.863,0,0,1,.171,1.132q.015,8.035,0,16.069a3.4,3.4,0,0,1-3.462,3.391c-3.547.009-7.093,0-10.64,0q-7.176,0-14.353,0a3.413,3.413,0,0,1-3.5-2.969A4.028,4.028,0,0,1,0,20.52Q0,12.7.007,4.879A12.852,12.852,0,0,1,.159,3.517" transform="translate(0 -1.269)"/><path d="M2.637.506A3.436,3.436,0,0,1,4.48,0q4.265,0,8.531,0Q21.2,0,29.394,0a3.51,3.51,0,0,1,1.881.494c-.134.095-.235.169-.339.238L17.878,9.44a1.3,1.3,0,0,1-1.844,0L2.978.737c-.1-.066-.2-.133-.341-.231" transform="translate(-0.951 0)"/></g></g></g></svg>