<svg xmlns="http://www.w3.org/2000/svg" width="32.229" height="32" viewBox="0 0 32.229 32"><rect width="32" height="32" transform="translate(0.229)" fill="none"/><path d="M9.436,16.849A26.931,26.931,0,0,0,21.151,28.564l3.911-3.911a1.768,1.768,0,0,1,1.813-.427,20.279,20.279,0,0,0,6.347,1.013A1.783,1.783,0,0,1,35,27.018v6.2A1.783,1.783,0,0,1,33.222,35,30.22,30.22,0,0,1,3,4.778,1.783,1.783,0,0,1,4.778,3H11a1.783,1.783,0,0,1,1.778,1.778,20.2,20.2,0,0,0,1.013,6.347,1.784,1.784,0,0,1-.444,1.813Z" transform="translate(-3 -3)"/></svg>