<svg xmlns="http://www.w3.org/2000/svg" width="32" height="32" viewBox="0 0 32 32"><g transform="translate(-0.229)"><rect width="32" height="32" transform="translate(0.229)" fill="none"/><path d="M13.043,0A13.46,13.46,0,0,1,23.156,4.731a13.078,13.078,0,0,1,3.015,7.615,12.644,12.644,0,0,1-2.232,7.87c-2.532,3.618-6.92,5.775-8.9,9.72a4.593,4.593,0,0,1-1.17,1.765c-1.381,1.017-2.135-.811-2.749-1.7a29.1,29.1,0,0,0-3.243-3.93c-1.95-1.982-4.2-3.707-5.754-6.015A13.055,13.055,0,0,1,1.318,7.2,13.322,13.322,0,0,1,12.04.035q.5-.038,1-.035M7.254,13.081a5.808,5.808,0,1,0,5.858-5.825,5.819,5.819,0,0,0-5.858,5.825" transform="translate(2.905)"/></g></svg>