<svg xmlns="http://www.w3.org/2000/svg" width="32" height="32" viewBox="0 0 32 32"><g transform="translate(-0.401)"><rect width="32" height="32" transform="translate(0.401)" fill="none"/><path d="M96,48.008V59.644a4.365,4.365,0,0,0,4.364,4.364h17.455a4.365,4.365,0,0,0,4.364-4.364V48.008a1.455,1.455,0,1,0-2.909,0V59.644a1.455,1.455,0,0,1-1.455,1.455H100.364a1.455,1.455,0,0,1-1.455-1.455V48.008a1.455,1.455,0,1,0-2.909,0Zm11.636-11.034v15.4a1.455,1.455,0,1,0,2.909,0v-15.4l3.335,3.335a1.454,1.454,0,0,0,2.057-2.057l-5.818-5.818a1.453,1.453,0,0,0-1.585-.316,1.451,1.451,0,0,0-.471.316l-5.818,5.818a1.454,1.454,0,0,0,2.057,2.057Z" transform="translate(-93 -32.008)"/></g></svg>