<svg xmlns="http://www.w3.org/2000/svg" width="32.323" height="32" viewBox="0 0 32.323 32"><g transform="translate(0.323)"><rect width="32" height="32" transform="translate(-0.323)" fill="none"/><path d="M155,6.085a13.148,13.148,0,0,1-3.776,1.029,6.614,6.614,0,0,0,2.889-3.635,12.848,12.848,0,0,1-4.171,1.592,6.567,6.567,0,0,0-7.891-1.3,6.735,6.735,0,0,0-2.889,3.086,6.632,6.632,0,0,0-.409,4.2,18.594,18.594,0,0,1-7.5-1.987,18.676,18.676,0,0,1-6.031-4.861,6.577,6.577,0,0,0-.113,6.4,6.769,6.769,0,0,0,2.142,2.367,6.682,6.682,0,0,1-2.973-.831v.085a6.6,6.6,0,0,0,5.27,6.439,6.571,6.571,0,0,1-2.959.113,6.481,6.481,0,0,0,2.325,3.269,6.619,6.619,0,0,0,3.8,1.3,13.248,13.248,0,0,1-8.159,2.8A14.542,14.542,0,0,1,123,26.066a18.713,18.713,0,0,0,10.061,2.945c12.076,0,18.684-10,18.684-18.684,0-.282-.014-.564-.028-.845a13.145,13.145,0,0,0,3.269-3.4Z" transform="translate(-123 -0.002)"/></g></svg>