<svg xmlns="http://www.w3.org/2000/svg" width="32.2" height="32" viewBox="0 0 32.2 32"><g transform="translate(3 -27)"><rect width="32" height="32" transform="translate(-3 27)" fill="none"/><path d="M29.8,32a17.765,17.765,0,0,0-2.577-7.751,12.994,12.994,0,0,0-4.137-4.255,12.883,12.883,0,0,0-6.937-1.85A12.955,12.955,0,0,0,9.195,20a13.16,13.16,0,0,0-4.172,4.264A17.654,17.654,0,0,0,2.4,32H0a19.711,19.711,0,0,1,2.989-9.012,14.971,14.971,0,0,1,8-6.455,9.066,9.066,0,1,1,10.3-.007,14.821,14.821,0,0,1,7.976,6.458A19.85,19.85,0,0,1,32.2,32ZM9.467,9.066A6.667,6.667,0,1,0,16.134,2.4,6.674,6.674,0,0,0,9.467,9.066Z" transform="translate(-3 27)"/></g></svg>