<svg xmlns="http://www.w3.org/2000/svg" width="32.102" height="32" viewBox="0 0 32.102 32"><rect width="32" height="32" transform="translate(0.102)" fill="none"/><path d="M221.329,7.347A3.778,3.778,0,0,0,220.3,5.654a3.962,3.962,0,0,0-1.773-.987C216.023,4,205.984,4,205.984,4a106.243,106.243,0,0,0-12.518.627,4.286,4.286,0,0,0-1.773,1.013,3.921,3.921,0,0,0-1.04,1.706A38.519,38.519,0,0,0,190,14.666,38.658,38.658,0,0,0,190.653,22a3.851,3.851,0,0,0,1.026,1.693,4.14,4.14,0,0,0,1.786.987c2.546.653,12.518.653,12.518.653a100.982,100.982,0,0,0,12.545-.627,3.84,3.84,0,0,0,1.773-.987,3.64,3.64,0,0,0,1.027-1.693A38.533,38.533,0,0,0,222,14.706a35,35,0,0,0-.667-7.359M202.8,19.239V10.107l8.345,4.573Z" transform="translate(-190 1.004)"/></svg>