<svg xmlns="http://www.w3.org/2000/svg" width="174.8" height="41.776" viewBox="0 0 174.8 41.776"><g transform="translate(-488.2 -483.612)"><g transform="translate(488.2 483.612)"><path d="M8.708,47.165a17.922,17.922,0,0,0,10.1,16.127l-8.548-23.42a17.851,17.851,0,0,0-1.551,7.293Z" transform="translate(-5.739 -26.277)" fill="#009dff"/><path d="M44.421,25.722a9.434,9.434,0,0,0-1.478-4.942c-.908-1.476-1.76-2.726-1.76-4.2A3.1,3.1,0,0,1,44.192,13.4c.079,0,.155.01.232.014a17.915,17.915,0,0,0-27.072,3.373c.42.013.817.021,1.153.021,1.874,0,4.776-.227,4.776-.227a.74.74,0,0,1,.115,1.476s-.971.114-2.051.171l6.525,19.41,3.921-11.761L29,18.225c-.965-.057-1.879-.171-1.879-.171a.74.74,0,0,1,.113-1.476s2.959.227,4.72.227c1.874,0,4.776-.227,4.776-.227a.74.74,0,0,1,.115,1.476s-.973.114-2.051.171l6.476,19.263,1.787-5.973A21.647,21.647,0,0,0,44.421,25.722Z" transform="translate(-11.436 -5.739)" fill="#009dff"/><path d="M51.792,65.857,46.416,81.48a17.928,17.928,0,0,0,11.013-.286,1.574,1.574,0,0,1-.128-.247Z" transform="translate(-30.59 -43.402)" fill="#009dff"/><path d="M94.4,36.046a13.749,13.749,0,0,1,.121,1.843,16.9,16.9,0,0,1-1.363,6.418L87.681,60.132A17.922,17.922,0,0,0,94.4,36.046Z" transform="translate(-57.785 -23.756)" fill="#009dff"/><path d="M20.888,0A20.888,20.888,0,1,0,41.778,20.888,20.912,20.912,0,0,0,20.888,0Zm0,40.819A19.931,19.931,0,1,1,40.818,20.888,19.954,19.954,0,0,1,20.888,40.819Z" transform="translate(0 0)" fill="#009dff"/></g><text transform="translate(539 512)" fill="#131e33" font-size="21" font-family="HelveticaNeue-Bold, Helvetica Neue" font-weight="700"><tspan x="0" y="0">WP-Tailwind</tspan></text></g></svg>